<svg width="396" height="300" viewBox="0 0 396 300" fill="none" xmlns="http://www.w3.org/2000/svg">
<g clip-path="url(#clip0)">
<path d="M213.04 300C292.758 300 357.382 281.546 357.382 258.783C357.382 236.019 292.758 217.565 213.04 217.565C133.322 217.565 68.6982 236.019 68.6982 258.783C68.6982 281.546 133.322 300 213.04 300Z" fill="#F5F5F5"/>
<path d="M350.372 98.4434C350.372 98.4434 324.802 123.998 339.237 161.918C353.671 199.838 314.492 262.9 314.492 262.9C314.492 262.9 314.905 262.839 315.692 262.702C368.208 253.437 394.301 193.408 365.099 148.815C354.256 132.237 345.328 112.787 350.372 98.4434Z" fill="#016AFF"/>
<path d="M350.371 98.4434C350.371 98.4434 335.937 129.768 350.371 155.323C364.806 180.878 352.846 252.596 314.492 262.9" stroke="#535461" stroke-width="2" stroke-miterlimit="10"/>
<path d="M395.909 201.804C395.909 201.804 366.732 197.159 364.072 223.295C361.412 249.43 307.984 253.049 307.984 253.049C307.984 253.049 308.331 253.288 308.987 253.717C353.114 282.668 395.299 272.158 388.944 233.714C386.564 219.424 386.754 205.068 395.909 201.804Z" fill="#016AFF"/>
<path opacity="0.2" d="M395.909 201.804C395.909 201.804 366.732 197.159 364.072 223.295C361.412 249.43 307.984 253.049 307.984 253.049C307.984 253.049 308.331 253.288 308.987 253.717C353.114 282.668 395.299 272.158 388.944 233.714C386.564 219.424 386.754 205.068 395.909 201.804Z" fill="#F5F5F5"/>
<path d="M395.909 201.804C395.909 201.804 373.26 206.775 375.12 227.358C376.98 247.942 341.472 272.607 307.968 253.041" stroke="#535461" stroke-width="2" stroke-miterlimit="10"/>
<path opacity="0.2" d="M62.4382 0.0332406C59.1142 -0.0821678 55.7078 0.0332405 52.59 1.19557C44.1068 4.35693 40.0858 14.6983 41.3932 23.6549C42.7005 32.6114 48.0783 40.3891 53.6581 47.5155C59.2379 54.642 65.2838 61.6778 68.3439 70.1851C69.8698 74.4345 70.5832 79.1952 69.0326 83.4364C66.6406 89.9776 59.4277 93.6336 52.5034 94.392C45.5791 95.1504 38.6259 93.6707 31.6769 93.1554C28.7612 92.9494 25.763 92.9246 23.0164 93.8809C20.0017 94.9237 17.4901 97.0505 15.1807 99.268C6.1696 107.965 -1.04337 119.835 0.12374 132.299C1.44344 146.429 13.2135 157.599 26.1053 163.588C30.3737 165.574 34.8895 167.182 38.6465 170.017C48.5443 177.494 50.7671 191.504 49.7815 203.873C48.7958 216.243 45.4389 228.624 47.3071 240.886C49.5052 255.148 59.2338 268.028 72.3566 274.046C84.0483 279.404 98.6804 279.07 109.061 271.49C114.121 267.781 117.948 262.666 121.276 257.361C126.299 249.358 130.375 240.799 133.421 231.856C134.869 227.606 136.23 223.035 139.608 220.08C141.67 218.262 144.342 217.244 146.985 216.453C154.953 214.07 163.346 213.415 171.388 211.297C179.429 209.178 187.521 205.229 191.892 198.169C198.078 188.149 195.192 175.334 195.22 163.546C195.27 136.689 211.35 112.643 217.284 86.47C219.222 77.9133 219.944 68.4457 215.614 60.8164C212.669 55.6106 207.708 51.9011 202.491 49.0159C191.026 42.6519 177.994 39.8203 165.173 37.0628C147.353 33.2379 125.714 32.7433 111.902 20.3698C98.6474 8.49927 80.5139 0.0332406 62.4382 0.0332406Z" fill="#016AFF"/>
<g opacity="0.5">
<path opacity="0.5" d="M127.079 103.987C127.078 97.5133 126.063 91.0798 124.072 84.9197L119.123 69.5827C119.123 69.3272 119.123 69.0758 119.123 68.8243C119.276 58.994 111.609 54.0892 108.657 54.6209C105.634 55.1649 97.2453 50.9608 97.2453 50.9608V51.0762C96.6701 50.4145 96.1514 49.7058 95.6946 48.9576C97.1439 47.9027 98.3676 46.5688 99.2937 45.0344C100.22 43.5 100.83 41.7961 101.088 40.0228C101.345 38.2495 101.246 36.4425 100.795 34.7082C100.344 32.9738 99.5508 31.347 98.4619 29.9235C99.3685 29.2426 100.06 28.3155 100.454 27.2526C101.138 25.3277 100.615 23.1309 99.5011 21.4162C99.0276 20.7004 98.4742 20.0409 97.8515 19.4502C96.9083 18.5162 95.8781 17.6743 94.7749 16.9359C92.0242 15.0317 89.0013 13.3953 85.702 12.8142C85.1311 12.6795 84.5367 12.6795 83.9658 12.8142C83.4703 13.014 82.9986 13.2684 82.5595 13.5726C80.2995 14.8586 77.4869 14.3021 74.8805 14.1661C72.2741 14.0301 69.1068 14.7596 68.282 17.2038C68.0263 17.9581 68.0428 18.7742 67.8696 19.5491C67.4572 21.4451 65.9932 22.9165 64.8632 24.4952C63.7332 26.0738 62.8877 28.2047 63.828 29.9193C64.1497 30.4964 64.6528 31.0281 64.6528 31.6876C64.6528 32.1616 64.3724 32.5861 64.2404 33.0395C63.9559 34.0699 64.492 35.1004 65.3168 35.8464C65.6722 36.2294 66.0907 36.5486 66.554 36.7903C67.8614 37.458 69.3666 37.6641 70.6987 38.2823C71.3636 38.5944 71.9736 39.012 72.505 39.5189C73.156 40.1999 73.6648 41.0037 74.0019 41.8833C74.3389 42.7629 74.4974 43.7007 74.4681 44.6422L74.7444 44.671C74.7444 44.7535 74.7444 44.8318 74.7444 44.9142C75.0331 44.9472 75.3383 44.976 75.6393 44.9884C76.0724 45.6871 76.5679 46.3452 77.1199 46.9545C77.0264 47.3062 76.9205 47.6634 76.8023 48.0261C75.8332 48.6979 67.9067 53.9738 58.8915 52.7043C49.2701 51.3482 43.7686 93.3898 43.7686 93.3898C43.412 95.7941 43.2383 98.2219 43.249 100.652C43.2077 106.835 44.5068 114.926 51.7445 113.735L55.5923 112.469V133.263C55.5923 133.263 56.1408 138.96 54.219 142.743C52.2972 146.527 60.269 145.183 60.269 145.183C60.269 145.183 60.5741 145.501 61.135 146.041L60.9577 146.54L61.1928 146.779C60.1443 150.361 58.7306 153.826 56.9738 157.12L57.2007 157.235C57.0563 157.512 56.9738 157.648 56.9738 157.648C56.9738 157.648 59.9349 159.16 64.0095 161.11C67.284 172.173 74.4516 197.793 72.0926 202.673L72.1586 202.813C72.5999 203.729 75.0661 209.124 74.5671 214.066C74.1175 218.484 80.2376 238.561 82.5224 245.853L81.4419 246.071L85.2896 259.904L84.4648 268.856C84.4648 268.856 79.7923 281.332 90.787 278.892C101.782 276.452 98.7588 266.416 98.7588 266.416L99.0351 246.071C99.0351 246.071 97.9752 245.482 96.6679 244.917C95.7688 242.489 93.8099 236.752 93.8099 232.783C93.8099 227.63 90.2344 205.385 90.2344 205.385V205.34V205.254V205.229L90.2137 204.932V204.883C90.2137 204.606 90.1684 204.227 90.1354 203.766V203.741C89.723 197.727 88.4858 177.296 89.3889 166.645C90.1832 166.104 91.0095 165.611 91.8634 165.17C94.5399 171.929 101.439 190.193 100.998 197.855C100.45 207.335 100.862 199.891 100.998 198.679C101.039 198.304 101.068 198.758 101.081 199.776C101.081 199.961 101.081 200.167 101.081 200.386C101.081 200.604 101.081 200.847 101.081 201.099C101.081 201.35 101.081 201.622 101.081 201.923C101.081 202.066 101.081 202.212 101.081 202.36C101.081 202.657 101.081 202.967 101.081 203.292C101.081 203.454 101.081 203.619 101.081 203.786C101.081 204.611 101.081 205.526 101.052 206.478C101.052 206.667 101.052 206.86 101.052 207.055C101.052 207.636 101.052 208.229 101.023 208.831C101.023 209.656 100.99 210.455 100.973 211.284C100.932 213.138 100.879 215.014 100.813 216.77C100.813 216.965 100.806 217.158 100.792 217.351C100.778 217.736 100.763 218.112 100.747 218.48C100.73 218.848 100.714 219.208 100.697 219.56C100.681 219.909 100.663 220.248 100.643 220.578C100.623 220.966 100.598 221.337 100.577 221.691L99.0846 221.477L98.767 224.906C98.2668 230.35 98.9708 235.838 100.829 240.981C101.34 242.39 101.736 243.557 101.823 243.973C102.099 245.329 101.823 255.102 101.823 255.102C101.823 255.102 103.473 267.85 111.172 265.406C114.636 264.306 116.319 260.959 117.123 257.604C118.016 253.714 117.683 249.644 116.171 245.951C115.078 243.206 113.96 239.357 114.748 236.381C116.121 231.229 116.121 223.904 116.121 223.904L115.272 223.785C115.483 223.383 115.675 222.97 115.845 222.548C115.845 222.548 115.568 203.832 118.043 201.391C119.404 200.048 119.28 196.821 118.868 194.183C118.279 190.365 118.14 186.492 118.455 182.642C118.624 180.659 118.868 178.932 119.152 178.318C119.878 176.884 120.604 162.425 117.391 155.467L118.051 155.261L117.948 154.75L118.051 154.717C118.536 156.01 119.086 157.277 119.701 158.513C119.863 158.64 120.05 158.733 120.249 158.785C129.153 157.223 129.512 148.918 129.017 144.384C129.392 144.565 129.598 144.681 129.598 144.681L130.423 132.728C131.269 130.819 131.582 128.383 131.562 125.75C131.599 116.336 127.079 103.987 127.079 103.987ZM117.263 137.962C116.653 132.756 115.808 127.856 115.808 127.856L111.684 113.207V107.874L118.224 132.274L117.263 137.962Z" fill="url(#paint0_linear)"/>
</g>
<path d="M98.7216 217.977L98.4165 221.328C97.9349 226.653 98.6173 232.018 100.417 237.053C100.907 238.433 101.291 239.571 101.373 239.979C101.637 241.306 101.373 250.848 101.373 250.848C101.373 250.848 102.965 263.308 110.393 260.922C113.733 259.85 115.342 256.573 116.133 253.296C116.992 249.496 116.67 245.525 115.21 241.912C114.154 239.229 113.073 235.458 113.836 232.56C115.164 227.523 115.164 220.368 115.164 220.368L98.7216 217.977Z" fill="#5A5773"/>
<path d="M90.7661 160.455C90.7661 160.455 101.109 185.638 100.577 194.912C100.045 204.186 100.445 196.899 100.577 195.708C100.812 193.585 100.577 218.79 99.7813 221.675C99.7813 221.675 110.656 229.626 114.9 219.024C114.9 219.024 114.636 200.736 117.02 198.35C118.331 197.039 118.203 193.882 117.816 191.306C117.244 187.579 117.105 183.799 117.403 180.041C117.564 178.104 117.787 176.398 118.076 175.816C118.872 174.225 119.667 156.201 114.892 151.164L90.7661 160.455Z" fill="#605D82"/>
<path opacity="0.1" d="M101.109 221.687C101.905 218.773 102.14 193.585 101.905 195.72C101.773 196.911 101.373 204.203 101.905 194.925C102.437 185.647 92.0941 160.467 92.0941 160.467L115.234 151.572C115.127 151.436 115.016 151.308 114.904 151.189L90.7703 160.467C90.7703 160.467 101.113 185.651 100.581 194.925C100.049 204.199 100.449 196.911 100.581 195.72C100.816 193.597 100.581 218.802 99.7854 221.687C99.7854 221.687 104.128 224.861 108.396 224.523C104.598 224.238 101.109 221.687 101.109 221.687Z" fill="black"/>
<path d="M81.7471 242.098L85.4587 255.617L84.6628 264.363C84.6628 264.363 80.1552 276.555 90.7622 274.169C101.369 271.782 98.4536 261.977 98.4536 261.977L98.7176 242.098C98.7176 242.098 94.4739 239.711 92.6181 239.979C90.7622 240.247 81.7471 242.098 81.7471 242.098Z" fill="#5A5773"/>
<path d="M63.4485 154.095C63.4485 154.095 75.6474 193.589 72.7317 199.685C72.7317 199.685 75.6474 205.517 75.1196 210.814C74.5917 216.11 83.6069 244.476 83.6069 244.476L96.8698 242.09C96.8698 242.09 93.6861 234.139 93.6861 229.102C93.6861 224.065 90.2383 202.311 90.2383 202.311C90.2383 202.311 87.3226 162.548 90.7703 158.307L63.4485 154.095Z" fill="#605D82"/>
<g opacity="0.1">
<path opacity="0.1" d="M89.7393 161.539C87.5412 170.54 89.9703 203.667 89.9703 203.667C89.9703 203.667 93.418 225.401 93.418 230.458C93.418 234.304 95.2697 239.843 96.1481 242.25L96.8657 242.122C96.8657 242.122 93.6819 234.172 93.6819 229.135C93.6819 224.098 90.2342 202.344 90.2342 202.344C90.2342 202.344 88.0155 172.07 89.7393 161.539Z" fill="black"/>
<path opacity="0.1" d="M72.7317 199.685L72.7977 199.821C72.8183 199.685 72.8389 199.541 72.8513 199.409C72.8162 199.503 72.7763 199.595 72.7317 199.685Z" fill="black"/>
<path opacity="0.1" d="M90.1682 159.61C90.2887 159.152 90.4914 158.721 90.7662 158.336L63.4485 154.095C63.4485 154.095 63.6093 154.61 63.8856 155.529L90.1682 159.61Z" fill="black"/>
</g>
<path d="M127.099 139.78C127.099 139.78 131.079 154.618 119.144 156.745C118.95 156.695 118.769 156.605 118.612 156.481C118.612 156.481 111.717 142.962 117.02 137.662L127.099 139.78Z" fill="#A1616A"/>
<path d="M78.2994 41.1843C78.2994 41.1843 79.0953 52.313 70.3441 57.6177C61.5928 62.9223 88.9023 77.4968 88.9023 77.4968L103.225 54.6995C103.225 54.6995 97.1298 55.4867 93.4182 44.8939L78.2994 41.1843Z" fill="#A1616A"/>
<path opacity="0.1" d="M72.4638 58.405C72.4638 58.405 85.9907 86.5028 98.1896 59.996L117.02 153.295C117.02 153.295 87.8424 162.31 87.5826 166.551C87.3227 170.792 58.1492 155.686 58.1492 155.686C58.1492 155.686 64.5126 144.022 62.9248 136.866C61.3371 129.711 72.4638 58.405 72.4638 58.405Z" fill="black"/>
<path d="M72.4638 57.8733C72.4638 57.8733 85.9907 85.9711 98.1896 59.4643L117.02 152.768C117.02 152.768 87.8424 161.782 87.5826 166.023C87.3227 170.265 58.1492 155.154 58.1492 155.154C58.1492 155.154 64.5126 143.49 62.9248 136.335C61.3371 129.179 72.4638 57.8733 72.4638 57.8733Z" fill="#E1E7EF"/>
<path d="M85.7267 249.521C85.7267 249.521 82.279 241.834 90.2343 241.834C98.1896 241.834 96.8658 248.726 96.8658 248.726L85.7267 249.521Z" fill="#5A5773"/>
<path d="M103.761 229.638C103.761 229.638 100.577 221.419 108.537 221.155C116.496 220.892 112.516 228.574 112.516 228.574L103.761 229.638Z" fill="#5A5773"/>
<path opacity="0.1" d="M96.9978 51.9009C96.9978 51.9009 105.085 56.0226 108.005 55.4785C110.925 54.9345 118.612 59.9836 118.084 70.0571L122.876 85.0849C124.793 91.1107 125.767 97.3963 125.763 103.719C125.763 103.719 132.658 122.803 128.947 131.285L128.151 142.95C128.151 142.95 122.051 139.504 115.684 140.563L117.288 131.038L110.112 103.995L98.1773 75.1021L96.9978 51.9009Z" fill="black"/>
<path d="M96.9978 51.3774C96.9978 51.3774 105.085 55.4992 108.005 54.9551C110.925 54.411 118.612 59.4602 118.084 69.5337L122.876 84.5615C124.793 90.5872 125.767 96.8728 125.763 103.196C125.763 103.196 132.658 122.279 128.947 130.762L128.151 142.426C128.151 142.426 122.051 138.981 115.684 140.04L117.276 130.498L110.112 103.464L98.1896 74.5704L96.9978 51.3774Z" fill="#67647E"/>
<path opacity="0.1" d="M110.393 83.5846V113.537L114.372 127.852C114.372 127.852 117.024 143.49 116.228 148.263C115.432 153.036 102.701 154.095 99.2537 150.118C95.8059 146.14 97.6618 112.198 97.6618 112.198L96.9978 62.5102L97.5298 60.9192L110.393 83.5846Z" fill="black"/>
<path d="M110.937 82.2616V112.214L114.917 126.529C114.917 126.529 117.568 142.167 116.772 146.94C115.977 151.713 103.246 152.772 99.7978 148.795C96.3501 144.817 98.206 110.875 98.206 110.875L97.542 61.1748L110.937 82.2616Z" fill="#67647E"/>
<path opacity="0.1" d="M57.4812 107.177L65.9685 133.556L61.9888 144.821C61.9888 144.821 80.8192 164.7 92.7543 155.158C92.7543 155.158 94.0822 114.6 91.4263 105.059C88.7704 95.5168 76.0436 63.4291 76.0436 63.4291L73.4083 54.959L59.3535 62.9098L57.4812 107.177Z" fill="black"/>
<path d="M56.8169 105.85V131.817C56.8169 131.817 57.3489 137.385 55.489 141.095C53.629 144.805 61.3245 143.481 61.3245 143.481C61.3245 143.481 80.1549 163.361 92.0899 153.819C92.0899 153.819 93.4179 113.261 90.762 103.719C88.1061 94.1774 75.3793 62.0897 75.3793 62.0897L72.7275 53.6072L58.6727 61.558L56.8169 105.85Z" fill="#67647E"/>
<path opacity="0.1" d="M77.3712 48.9949C77.3712 48.9949 69.284 54.959 60.0007 53.6318C50.7175 52.3046 45.4139 93.3941 45.4139 93.3941C45.4139 93.3941 41.9662 114.6 53.1053 112.746L77.7713 104.527C77.7713 104.527 72.4677 98.9585 73.2637 91.8032L61.3245 96.572L61.8607 73.7788L77.3712 48.9949Z" fill="black"/>
<path opacity="0.1" d="M45.9422 92.8627C45.9422 92.8627 42.4945 114.069 53.6336 112.214L78.2996 103.996C78.2996 103.996 72.996 98.4312 73.792 91.2717L61.8611 96.0447L45.9422 92.8627Z" fill="black"/>
<path d="M73.2061 94.0662C73.2061 94.0662 81.483 83.189 87.5784 88.4112C93.6737 93.6334 75.3918 103.204 75.3918 103.204L73.2061 94.0662Z" fill="#A1616A"/>
<path d="M77.3712 48.4631C77.3712 48.4631 69.284 54.4273 60.0007 53.1001C50.7175 51.7729 45.4139 92.8624 45.4139 92.8624C45.4139 92.8624 41.9662 114.069 53.1053 112.214L77.7713 103.995C77.7713 103.995 72.4677 98.4267 73.2637 91.2714L61.3245 96.0444L61.8607 73.2471L75.3876 62.1184L77.3712 48.4631Z" fill="#67647E"/>
<path opacity="0.1" d="M93.6822 45.4132L78.5634 41.7036C78.5634 41.7036 79.3511 42.5939 78.4314 46.0768C80.8646 48.8672 83.8545 52.5726 87.8466 52.5726C90.7035 52.578 93.4849 51.6566 95.7731 49.9471C94.9192 48.5131 94.2184 46.9935 93.6822 45.4132Z" fill="black"/>
<path d="M87.5825 52.0451C94.9075 52.0451 100.846 46.1105 100.846 38.7897C100.846 31.4689 94.9075 25.5342 87.5825 25.5342C80.2576 25.5342 74.3196 31.4689 74.3196 38.7897C74.3196 46.1105 80.2576 52.0451 87.5825 52.0451Z" fill="#A1616A"/>
<path opacity="0.1" d="M92.6097 33.0356C95.6862 32.5122 99.068 31.1479 100.099 28.205C100.759 26.3213 100.256 24.178 99.1793 22.5005C98.1029 20.8229 96.5193 19.5328 94.8862 18.3788C92.2344 16.5157 89.3104 14.9165 86.1184 14.356C85.5681 14.2244 84.9944 14.2244 84.4441 14.356C83.9654 14.5518 83.5103 14.8006 83.0872 15.0979C80.9056 16.355 78.192 15.8109 75.6639 15.679C73.1359 15.5471 70.1047 16.2602 69.3088 18.6467C69.0613 19.3845 69.0778 20.18 68.8964 20.9384C68.484 22.7931 67.0859 24.2357 66.0095 25.7814C64.9332 27.327 64.1042 29.4168 65.0115 31.0819C65.3208 31.6466 65.8363 32.1659 65.8363 32.8089C65.7567 33.2659 65.6181 33.7107 65.4239 34.132C65.0486 35.5004 66.1415 36.8812 67.4035 37.5324C68.6654 38.1837 70.1171 38.3856 71.4038 38.9915C72.6081 39.5855 73.6164 40.5126 74.3088 41.6628C75.0011 42.8129 75.3484 44.1375 75.3093 45.4791C76.4805 45.6152 77.8456 45.6852 78.6374 44.8114C78.9921 44.4199 79.1653 43.8964 79.4869 43.4801C79.8993 42.936 80.5427 42.6145 81.0706 42.1776C83.8461 39.8983 81.8748 36.7493 83.446 34.2928C84.2708 33.0274 85.5823 33.4148 86.9102 33.4354C88.8184 33.4801 90.7265 33.3462 92.6097 33.0356Z" fill="black"/>
<path d="M92.3458 32.772C95.4223 32.2485 98.804 30.8842 99.8351 27.9413C100.495 26.0577 99.9918 23.9144 98.9154 22.2368C97.839 20.5593 96.2554 19.2692 94.6223 18.1151C91.9705 16.2521 89.0465 14.6528 85.8545 14.0923C85.3041 13.9608 84.7305 13.9608 84.1801 14.0923C83.7015 14.2881 83.2464 14.5369 82.8233 14.8342C80.6417 16.0913 77.9281 15.5473 75.4 15.4154C72.872 15.2835 69.8408 15.9965 69.0449 18.383C68.7974 19.1208 68.8139 19.9163 68.6325 20.6747C68.2201 22.5295 66.822 23.9721 65.7456 25.5177C64.6692 27.0634 63.8403 29.1531 64.7476 30.8183C65.0569 31.3829 65.5724 31.9023 65.5724 32.5453C65.4928 33.0023 65.3542 33.447 65.16 33.8683C64.7847 35.2368 65.8776 36.6175 67.1395 37.2688C68.4015 37.92 69.8532 38.122 71.1399 38.7279C72.3491 39.3212 73.3617 40.2502 74.0565 41.4037C74.7513 42.5571 75.0989 43.8862 75.0577 45.232C76.229 45.368 77.594 45.438 78.3859 44.5642C78.7405 44.1727 78.9137 43.6492 79.2354 43.2329C79.6478 42.6888 80.2912 42.3673 80.819 41.9304C83.5945 39.6511 81.6232 36.5021 83.1945 34.0456C84.0193 32.7802 85.3308 33.1677 86.6587 33.1883C88.5632 33.2267 90.4672 33.0873 92.3458 32.772Z" fill="#4A4347"/>
<path opacity="0.1" d="M108.401 77.3567C108.401 77.3567 111.316 92.467 109.993 98.2992C109.184 101.692 109.303 105.24 110.339 108.571" fill="black"/>
<path opacity="0.1" d="M61.2671 83.7163C61.2671 83.7163 59.9968 93.7898 62.1125 95.9083L61.2671 83.7163Z" fill="black"/>
<path d="M135.323 207.859C135.487 207.859 135.644 207.794 135.76 207.678C135.876 207.562 135.941 207.405 135.941 207.241C135.941 207.077 135.876 206.919 135.76 206.803C135.644 206.687 135.487 206.622 135.323 206.622C135.159 206.622 135.001 206.687 134.885 206.803C134.769 206.919 134.704 207.077 134.704 207.241C134.704 207.405 134.769 207.562 134.885 207.678C135.001 207.794 135.159 207.859 135.323 207.859Z" fill="black"/>
<g opacity="0.5">
<path opacity="0.5" d="M325.8 135.832V135.49L213.28 49.0157C213.208 48.9632 213.122 48.9348 213.034 48.9348C212.946 48.9348 212.86 48.9632 212.789 49.0157L100.264 135.49V269.528H100.478V269.743H326.019V135.704L325.8 135.832Z" fill="url(#paint1_linear)"/>
</g>
<path d="M321.915 265.79H104.165V136.367L213.04 52.6963L321.915 136.367V265.79Z" fill="white"/>
<path d="M314.08 258.119H112.001V138.012L213.04 60.3628L314.08 138.012V258.119Z" fill="#E0E0E0"/>
<path d="M247.318 58.568L124.051 90.8655L165.151 247.554L288.419 215.257L247.318 58.568Z" fill="#016AFF"/>
<path d="M277.375 82.3726H149.942V244.357H277.375V82.3726Z" fill="#F5F5F5"/>
<path opacity="0.05" d="M105.196 136.573L214.071 201.285L105.196 265.996V136.573Z" fill="black"/>
<path d="M104.372 136.573L213.247 201.285L104.372 265.996V136.573Z" fill="white"/>
<path opacity="0.05" d="M321.297 136.573L212.422 201.285L321.297 265.996V136.573Z" fill="black"/>
<path d="M322.122 136.573L213.247 201.285L322.122 265.996V136.573Z" fill="white"/>
<path opacity="0.05" d="M104.372 263.935L213.247 179.027L322.122 263.935H104.372Z" fill="black"/>
<path d="M104.372 265.996L213.247 181.088L322.122 265.996H104.372Z" fill="white"/>
<path d="M126.497 275.826C126.497 275.826 121.029 257.278 127.524 243.619C130.284 237.909 131.116 231.459 129.895 225.236C129.293 222.287 128.422 219.399 127.293 216.609" stroke="#535461" stroke-width="2" stroke-miterlimit="10"/>
<path d="M131.331 207.978C131.331 210.253 127.207 216.844 127.207 216.844C127.207 216.844 123.083 210.249 123.083 207.978C123.083 206.885 123.517 205.837 124.29 205.064C125.064 204.291 126.113 203.856 127.207 203.856C128.3 203.856 129.349 204.291 130.123 205.064C130.896 205.837 131.331 206.885 131.331 207.978Z" fill="#016AFF"/>
<path d="M138.156 220.574C136.919 222.483 129.875 225.78 129.875 225.78C129.875 225.78 130.003 218.006 131.24 216.098C131.857 215.235 132.783 214.643 133.825 214.444C134.868 214.246 135.947 214.457 136.838 215.034C137.728 215.61 138.363 216.508 138.608 217.54C138.854 218.572 138.692 219.659 138.156 220.574Z" fill="#016AFF"/>
<path d="M137.842 242.094C135.809 243.116 128.064 242.411 128.064 242.411C128.064 242.411 132.102 235.767 134.131 234.745C134.616 234.473 135.152 234.303 135.705 234.243C136.258 234.184 136.818 234.237 137.35 234.4C137.882 234.563 138.376 234.831 138.802 235.19C139.227 235.548 139.576 235.989 139.826 236.485C140.077 236.982 140.224 237.524 140.26 238.079C140.295 238.634 140.218 239.19 140.033 239.715C139.847 240.239 139.558 240.721 139.181 241.13C138.805 241.54 138.349 241.869 137.842 242.098V242.094Z" fill="#016AFF"/>
<path d="M133.949 258.329C132.118 259.681 124.365 260.291 124.365 260.291C124.365 260.291 127.219 253.062 129.05 251.71C129.931 251.122 131.004 250.896 132.048 251.078C133.091 251.26 134.024 251.836 134.654 252.687C135.284 253.538 135.562 254.599 135.431 255.649C135.3 256.7 134.769 257.659 133.949 258.329Z" fill="#016AFF"/>
<path d="M121.21 226.217C122.86 227.799 130.444 229.444 130.444 229.444C130.444 229.444 128.584 221.897 126.951 220.314C126.157 219.613 125.122 219.244 124.063 219.284C123.004 219.324 122 219.771 121.262 220.531C120.523 221.291 120.105 222.306 120.096 223.366C120.086 224.425 120.485 225.448 121.21 226.221V226.217Z" fill="#016AFF"/>
<path d="M116.896 245.263C118.93 246.286 126.675 245.581 126.675 245.581C126.675 245.581 122.637 238.937 120.608 237.914C119.639 237.477 118.539 237.43 117.536 237.784C116.534 238.138 115.707 238.865 115.228 239.814C114.749 240.763 114.655 241.86 114.966 242.876C115.277 243.892 115.969 244.749 116.896 245.268V245.263Z" fill="#016AFF"/>
<path d="M115.247 264.347C117.078 265.699 124.831 266.309 124.831 266.309C124.831 266.309 121.977 259.08 120.146 257.728C119.714 257.375 119.214 257.113 118.678 256.958C118.141 256.804 117.579 256.759 117.025 256.829C116.471 256.898 115.936 257.079 115.454 257.36C114.972 257.642 114.552 258.019 114.22 258.467C113.888 258.916 113.651 259.428 113.522 259.971C113.394 260.514 113.377 261.077 113.473 261.627C113.569 262.177 113.776 262.702 114.081 263.169C114.386 263.637 114.782 264.038 115.247 264.347Z" fill="#016AFF"/>
<path opacity="0.5" d="M208.504 89.7917H157.365V93.9135H208.504V89.7917Z" fill="#016AFF"/>
<path opacity="0.5" d="M267.89 106.279H157.365V110.4H267.89V106.279Z" fill="#016AFF"/>
<path opacity="0.5" d="M267.89 116.995H157.365V121.117H267.89V116.995Z" fill="#016AFF"/>
<path opacity="0.4" d="M267.89 127.712H157.365V131.833H267.89V127.712Z" fill="#016AFF"/>
<path opacity="0.4" d="M267.89 138.428H157.365V142.55H267.89V138.428Z" fill="#016AFF"/>
<path opacity="0.3" d="M220.464 149.145H157.365V153.266H220.464V149.145Z" fill="#016AFF"/>
<path opacity="0.3" d="M243.558 159.861H157.365V163.983H243.558V159.861Z" fill="#016AFF"/>
</g>
<defs>
<linearGradient id="paint0_linear" x1="43.2531" y1="145.983" x2="131.516" y2="145.983" gradientUnits="userSpaceOnUse">
<stop stop-color="#808080" stop-opacity="0.25"/>
<stop offset="0.54" stop-color="#808080" stop-opacity="0.12"/>
<stop offset="1" stop-color="#808080" stop-opacity="0.1"/>
</linearGradient>
<linearGradient id="paint1_linear" x1="143868" y1="163568" x2="143868" y2="45270.4" gradientUnits="userSpaceOnUse">
<stop stop-color="#808080" stop-opacity="0.25"/>
<stop offset="0.54" stop-color="#808080" stop-opacity="0.12"/>
<stop offset="1" stop-color="#808080" stop-opacity="0.1"/>
</linearGradient>
<clipPath id="clip0">
<rect width="396" height="300" fill="white"/>
</clipPath>
</defs>
</svg>
