<svg width="91" height="91" viewBox="0 0 91 91" fill="none" xmlns="http://www.w3.org/2000/svg">
<rect width="91" height="91" rx="45.5" fill="#CCDDFF"/>
<path d="M29.4583 25H34.0417V29.5833H29.4583V41.0417C29.4583 42.2572 28.9754 43.423 28.1159 44.2826C27.2564 45.1421 26.0906 45.625 24.875 45.625C26.0906 45.625 27.2564 46.1079 28.1159 46.9674C28.9754 47.827 29.4583 48.9928 29.4583 50.2083L29.4583 61.6667H34.0417V66.25H29.4583C27.0063 65.6313 24.875 64.1875 24.875 61.6667V52.5C24.875 51.2844 24.3921 50.1186 23.5326 49.2591C22.673 48.3996 21.5072 47.9167 20.2917 47.9167H18L18 43.3333H20.2917C21.5072 43.3333 22.673 42.8504 23.5326 41.9909C24.3921 41.1314 24.875 39.9656 24.875 38.75V29.5833C24.875 28.3678 25.3579 27.202 26.2174 26.3424C27.077 25.4829 28.2428 25 29.4583 25ZM61.5417 25C62.7572 25 63.923 25.4829 64.7826 26.3424C65.6421 27.202 66.125 28.3678 66.125 29.5833V38.75C66.125 39.9656 66.6079 41.1314 67.4674 41.9909C68.327 42.8504 69.4928 43.3333 70.7083 43.3333H73V47.9167H70.7083C69.4928 47.9167 68.327 48.3996 67.4674 49.2591C66.6079 50.1186 66.125 51.2844 66.125 52.5V61.6667C66.125 62.8822 65.6421 64.048 64.7826 64.9076C63.923 65.7671 62.7572 66.25 61.5417 66.25H56.9583V61.6667L61.5417 61.6667V50.2083C61.5417 48.9928 62.0246 47.827 62.8841 46.9674C63.7436 46.1079 64.9094 45.625 66.125 45.625C64.9094 45.625 63.7436 45.1421 62.8841 44.2826C62.0246 43.423 61.5417 42.2572 61.5417 41.0417V29.5833H56.9583V25H61.5417ZM45.5 52.5C46.1078 52.5 46.6907 52.7414 47.1205 53.1712C47.5502 53.601 47.7917 54.1839 47.7917 54.7917C47.7917 55.3995 47.5502 55.9824 47.1205 56.4121C46.6907 56.8419 46.1078 57.0833 45.5 57.0833C44.8922 57.0833 44.3093 56.8419 43.8795 56.4121C43.4498 55.9824 43.2083 55.3995 43.2083 54.7917C43.2083 54.1839 43.4498 53.601 43.8795 53.1712C44.3093 52.7414 44.8922 52.5 45.5 52.5ZM36.3333 52.5C36.9411 52.5 37.524 52.7414 37.9538 53.1712C38.3836 53.601 38.625 54.1839 38.625 54.7917C38.625 55.3995 38.3836 55.9824 37.9538 56.4121C37.524 56.8419 36.9411 57.0833 36.3333 57.0833C35.7255 57.0833 35.1427 56.8419 34.7129 56.4121C34.2831 55.9824 34.0417 55.3995 34.0417 54.7917C34.0417 54.1839 34.2831 53.601 34.7129 53.1712C35.1427 52.7414 35.7255 52.5 36.3333 52.5ZM54.6667 52.5C55.2745 52.5 55.8574 52.7414 56.2871 53.1712C56.7169 53.601 56.9583 54.1839 56.9583 54.7917C56.9583 55.3995 56.7169 55.9824 56.2871 56.4121C55.8574 56.8419 55.2745 57.0833 54.6667 57.0833C54.0589 57.0833 53.476 56.8419 53.0462 56.4121C52.6164 55.9824 52.375 55.3995 52.375 54.7917C52.375 54.1839 52.6164 53.601 53.0462 53.1712C53.476 52.7414 54.0589 52.5 54.6667 52.5Z" fill="#016AFF"/>
</svg>
