<svg width="91" height="91" viewBox="0 0 91 91" fill="none" xmlns="http://www.w3.org/2000/svg">
<rect width="91" height="91" rx="45.5" fill="#FFCCCC"/>
<path d="M45.4999 44.3542C43.9804 44.3542 42.5232 43.7506 41.4488 42.6762C40.3744 41.6017 39.7708 40.1445 39.7708 38.625C39.7708 37.1056 40.3744 35.6483 41.4488 34.5739C42.5232 33.4995 43.9804 32.8959 45.4999 32.8959C47.0194 32.8959 48.4766 33.4995 49.5511 34.5739C50.6255 35.6483 51.2291 37.1056 51.2291 38.625C51.2291 39.3774 51.0809 40.1224 50.793 40.8175C50.5051 41.5126 50.0831 42.1442 49.5511 42.6762C49.019 43.2082 48.3875 43.6302 47.6924 43.9181C46.9973 44.206 46.2523 44.3542 45.4999 44.3542ZM45.4999 22.5834C41.2454 22.5834 37.1651 24.2735 34.1567 27.2819C31.1484 30.2903 29.4583 34.3705 29.4583 38.625C29.4583 50.6563 45.4999 68.4167 45.4999 68.4167C45.4999 68.4167 61.5416 50.6563 61.5416 38.625C61.5416 34.3705 59.8515 30.2903 56.8431 27.2819C53.8347 24.2735 49.7544 22.5834 45.4999 22.5834Z" fill="#880000"/>
</svg>
