<svg width="91" height="91" viewBox="0 0 91 91" fill="none" xmlns="http://www.w3.org/2000/svg">
<rect width="91" height="91" rx="45.5" fill="#CCEECC"/>
<path d="M45.5 29C47.6273 29 49.6674 29.845 51.1716 31.3492C52.6758 32.8534 53.5208 34.8936 53.5208 37.0208C53.5208 39.1481 52.6758 41.1882 51.1716 42.6924C49.6674 44.1966 47.6273 45.0417 45.5 45.0417C43.3727 45.0417 41.3326 44.1966 39.8284 42.6924C38.3242 41.1882 37.4792 39.1481 37.4792 37.0208C37.4792 34.8936 38.3242 32.8534 39.8284 31.3492C41.3326 29.845 43.3727 29 45.5 29ZM29.4583 34.7292C30.7417 34.7292 31.9333 35.0729 32.9646 35.6917C32.6208 38.9687 33.5833 42.2229 35.5542 44.7667C34.4083 46.9667 32.1167 48.4792 29.4583 48.4792C27.635 48.4792 25.8863 47.7548 24.597 46.4655C23.3077 45.1762 22.5833 43.4275 22.5833 41.6042C22.5833 39.7808 23.3077 38.0321 24.597 36.7428C25.8863 35.4535 27.635 34.7292 29.4583 34.7292ZM61.5417 34.7292C63.365 34.7292 65.1137 35.4535 66.403 36.7428C67.6923 38.0321 68.4167 39.7808 68.4167 41.6042C68.4167 43.4275 67.6923 45.1762 66.403 46.4655C65.1137 47.7548 63.365 48.4792 61.5417 48.4792C58.8833 48.4792 56.5917 46.9667 55.4458 44.7667C57.4439 42.1872 58.3713 38.9371 58.0354 35.6917C59.0667 35.0729 60.2583 34.7292 61.5417 34.7292ZM30.6042 58.2187C30.6042 53.475 37.2729 49.625 45.5 49.625C53.7271 49.625 60.3958 53.475 60.3958 58.2187V62.2292H30.6042L30.6042 58.2187ZM18 62.2292V58.7917C18 55.6062 22.3312 52.925 28.1979 52.1458C26.8458 53.7042 26.0208 55.8583 26.0208 58.2187L26.0208 62.2292H18ZM73 62.2292H64.9792V58.2187C64.9792 55.8583 64.1542 53.7042 62.8021 52.1458C68.6688 52.925 73 55.6062 73 58.7917V62.2292Z" fill="#006600"/>
</svg>
