<svg width="30" height="34" viewBox="0 0 30 34" fill="none" xmlns="http://www.w3.org/2000/svg">
<path d="M29.5652 34L21.8044 26.6087L22.7357 29.5652H3.69565C2.7155 29.5652 1.7755 29.1759 1.08243 28.4828C0.389362 27.7897 0 26.8497 0 25.8696V3.69565C0 2.7155 0.389362 1.7755 1.08243 1.08243C1.7755 0.389362 2.7155 0 3.69565 0H25.8696C26.8497 0 27.7897 0.389362 28.4828 1.08243C29.1759 1.7755 29.5652 2.7155 29.5652 3.69565V34ZM14.7826 8.57391C10.8209 8.57391 8.04174 10.2739 8.04174 10.2739C9.56435 8.91391 12.2252 8.13043 12.2252 8.13043L11.9739 7.87913C9.47565 7.92348 7.21391 9.65304 7.21391 9.65304C4.67131 14.96 4.83391 19.5426 4.83391 19.5426C6.90348 22.2183 9.97826 22.0261 9.97826 22.0261L11.0278 20.6957C9.18 20.2965 8.01218 18.6557 8.01218 18.6557C8.01218 18.6557 10.7913 20.5478 14.7826 20.5478C18.7739 20.5478 21.553 18.6557 21.553 18.6557C21.553 18.6557 20.3852 20.2965 18.5374 20.6957L19.587 22.0261C19.587 22.0261 22.6617 22.2183 24.7313 19.5426C24.7313 19.5426 24.8939 14.96 22.3513 9.65304C22.3513 9.65304 20.0896 7.92348 17.5913 7.87913L17.34 8.13043C17.34 8.13043 20.0009 8.91391 21.5235 10.2739C21.5235 10.2739 18.7444 8.57391 14.7826 8.57391V8.57391ZM11.7226 14.1765C12.6835 14.1765 13.467 15.0191 13.4522 16.0539C13.4522 17.0739 12.6835 17.9313 11.7226 17.9313C10.7765 17.9313 10.0078 17.0739 10.0078 16.0539C10.0078 15.0191 10.7617 14.1765 11.7226 14.1765ZM17.887 14.1765C18.8478 14.1765 19.6165 15.0191 19.6165 16.0539C19.6165 17.0739 18.8478 17.9313 17.887 17.9313C16.9409 17.9313 16.1722 17.0739 16.1722 16.0539C16.1722 15.0191 16.9261 14.1765 17.887 14.1765Z" fill="white"/>
</svg>
