<svg width="30" height="31" viewBox="0 0 30 31" fill="none" xmlns="http://www.w3.org/2000/svg">
<path d="M15 0.0400391C6.74999 0.0400391 0 6.80208 0 15.1304C0 22.6605 5.48999 28.9105 12.66 30.04V19.4978H8.84999V15.1304H12.66V11.8021C12.66 8.02196 14.895 5.94365 18.33 5.94365C19.965 5.94365 21.675 6.22979 21.675 6.22979V9.94967H19.785C17.925 9.94967 17.34 11.1093 17.34 12.2991V15.1304H21.51L20.835 19.4978H17.34V30.04C20.8746 29.4795 24.0933 27.6688 26.4149 24.9347C28.7364 22.2006 30.008 18.7232 30 15.1304C30 6.80208 23.25 0.0400391 15 0.0400391Z" fill="white"/>
</svg>
